<mxfile host="app.diagrams.net" modified="2022-06-14T21:20:31.100Z" agent="5.0 (Windows NT 10.0; Win64; x64) AppleWebKit/537.36 (KHTML, like Gecko) Chrome/102.0.0.0 Safari/537.36" etag="9DukMfxQnx4D5mjU1coB" version="20.0.1" type="github">
  <diagram id="CU1dLwbyN6xNwfW4Mx9f" name="Page-1">
    <mxGraphModel dx="1422" dy="795" grid="1" gridSize="10" guides="1" tooltips="1" connect="1" arrows="1" fold="1" page="1" pageScale="1" pageWidth="827" pageHeight="1169" math="0" shadow="0">
      <root>
        <mxCell id="0" />
        <mxCell id="1" parent="0" />
        <mxCell id="LUnopdxZhNVxtSLi4y9q-8" style="edgeStyle=none;shape=connector;rounded=0;orthogonalLoop=1;jettySize=auto;html=1;exitX=1;exitY=0.3333333333333333;exitDx=0;exitDy=0;exitPerimeter=0;entryX=0;entryY=0.5;entryDx=0;entryDy=0;labelBackgroundColor=default;fontFamily=Helvetica;fontSize=11;fontColor=default;endArrow=none;strokeColor=default;" edge="1" parent="1" source="LUnopdxZhNVxtSLi4y9q-1" target="LUnopdxZhNVxtSLi4y9q-7">
          <mxGeometry relative="1" as="geometry" />
        </mxCell>
        <mxCell id="LUnopdxZhNVxtSLi4y9q-12" style="edgeStyle=none;shape=connector;rounded=0;orthogonalLoop=1;jettySize=auto;html=1;exitX=1;exitY=0.3333333333333333;exitDx=0;exitDy=0;exitPerimeter=0;entryX=0;entryY=0.5;entryDx=0;entryDy=0;labelBackgroundColor=default;fontFamily=Helvetica;fontSize=11;fontColor=default;endArrow=none;strokeColor=default;" edge="1" parent="1" source="LUnopdxZhNVxtSLi4y9q-1" target="LUnopdxZhNVxtSLi4y9q-10">
          <mxGeometry relative="1" as="geometry" />
        </mxCell>
        <mxCell id="LUnopdxZhNVxtSLi4y9q-13" style="edgeStyle=none;shape=connector;rounded=0;orthogonalLoop=1;jettySize=auto;html=1;exitX=1;exitY=0.3333333333333333;exitDx=0;exitDy=0;exitPerimeter=0;entryX=0;entryY=0.5;entryDx=0;entryDy=0;labelBackgroundColor=default;fontFamily=Helvetica;fontSize=11;fontColor=default;endArrow=none;strokeColor=default;" edge="1" parent="1" source="LUnopdxZhNVxtSLi4y9q-1" target="LUnopdxZhNVxtSLi4y9q-11">
          <mxGeometry relative="1" as="geometry" />
        </mxCell>
        <mxCell id="LUnopdxZhNVxtSLi4y9q-18" style="edgeStyle=none;shape=connector;rounded=0;orthogonalLoop=1;jettySize=auto;html=1;exitX=1;exitY=0.3333333333333333;exitDx=0;exitDy=0;exitPerimeter=0;entryX=0;entryY=0.5;entryDx=0;entryDy=0;labelBackgroundColor=default;fontFamily=Helvetica;fontSize=11;fontColor=default;endArrow=none;strokeColor=default;" edge="1" parent="1" source="LUnopdxZhNVxtSLi4y9q-1" target="LUnopdxZhNVxtSLi4y9q-16">
          <mxGeometry relative="1" as="geometry" />
        </mxCell>
        <mxCell id="LUnopdxZhNVxtSLi4y9q-1" value="Funcionario" style="shape=umlActor;verticalLabelPosition=bottom;verticalAlign=top;html=1;outlineConnect=0;" vertex="1" parent="1">
          <mxGeometry x="160" y="360" width="30" height="60" as="geometry" />
        </mxCell>
        <mxCell id="LUnopdxZhNVxtSLi4y9q-2" value="" style="endArrow=none;html=1;rounded=0;entryX=1;entryY=0.3333333333333333;entryDx=0;entryDy=0;entryPerimeter=0;exitX=0;exitY=0.5;exitDx=0;exitDy=0;" edge="1" parent="1" source="LUnopdxZhNVxtSLi4y9q-6" target="LUnopdxZhNVxtSLi4y9q-1">
          <mxGeometry width="50" height="50" relative="1" as="geometry">
            <mxPoint x="180" y="280" as="sourcePoint" />
            <mxPoint x="270" y="334" as="targetPoint" />
          </mxGeometry>
        </mxCell>
        <mxCell id="LUnopdxZhNVxtSLi4y9q-4" value="Responder Formulário" style="shape=umlFrame;whiteSpace=wrap;html=1;width=120;height=30;boundedLbl=1;verticalAlign=middle;align=left;spacingLeft=5;fontFamily=Helvetica;fontSize=11;fontColor=default;" vertex="1" parent="1">
          <mxGeometry x="210" y="60" width="530" height="610" as="geometry" />
        </mxCell>
        <mxCell id="LUnopdxZhNVxtSLi4y9q-6" value="Efetuar Login" style="ellipse;whiteSpace=wrap;html=1;fontFamily=Helvetica;fontSize=11;fontColor=default;" vertex="1" parent="1">
          <mxGeometry x="380" y="100" width="140" height="70" as="geometry" />
        </mxCell>
        <mxCell id="LUnopdxZhNVxtSLi4y9q-7" value="Visualiza Formulário Disponível" style="ellipse;whiteSpace=wrap;html=1;fontFamily=Helvetica;fontSize=11;fontColor=default;" vertex="1" parent="1">
          <mxGeometry x="380" y="200" width="140" height="70" as="geometry" />
        </mxCell>
        <mxCell id="LUnopdxZhNVxtSLi4y9q-10" value="Acessar Formulário" style="ellipse;whiteSpace=wrap;html=1;fontFamily=Helvetica;fontSize=11;fontColor=default;" vertex="1" parent="1">
          <mxGeometry x="380" y="290" width="140" height="70" as="geometry" />
        </mxCell>
        <mxCell id="LUnopdxZhNVxtSLi4y9q-11" value="Responder Perguntas" style="ellipse;whiteSpace=wrap;html=1;fontFamily=Helvetica;fontSize=11;fontColor=default;" vertex="1" parent="1">
          <mxGeometry x="380" y="380" width="140" height="70" as="geometry" />
        </mxCell>
        <mxCell id="LUnopdxZhNVxtSLi4y9q-16" value="Finalizar Formulário" style="ellipse;whiteSpace=wrap;html=1;fontFamily=Helvetica;fontSize=11;fontColor=default;" vertex="1" parent="1">
          <mxGeometry x="380" y="470" width="140" height="70" as="geometry" />
        </mxCell>
        <mxCell id="LUnopdxZhNVxtSLi4y9q-17" value="Obter Potuação" style="ellipse;whiteSpace=wrap;html=1;fontFamily=Helvetica;fontSize=11;fontColor=default;" vertex="1" parent="1">
          <mxGeometry x="600" y="430" width="140" height="70" as="geometry" />
        </mxCell>
        <mxCell id="LUnopdxZhNVxtSLi4y9q-19" value="Include" style="endArrow=open;endSize=12;dashed=1;html=1;rounded=0;labelBackgroundColor=default;fontFamily=Helvetica;fontSize=11;fontColor=default;strokeColor=default;shape=connector;exitX=1;exitY=0.5;exitDx=0;exitDy=0;entryX=0;entryY=0.5;entryDx=0;entryDy=0;" edge="1" parent="1" source="LUnopdxZhNVxtSLi4y9q-16" target="LUnopdxZhNVxtSLi4y9q-17">
          <mxGeometry width="160" relative="1" as="geometry">
            <mxPoint x="330" y="420" as="sourcePoint" />
            <mxPoint x="490" y="420" as="targetPoint" />
          </mxGeometry>
        </mxCell>
      </root>
    </mxGraphModel>
  </diagram>
</mxfile>
